<?xml version="1.0" encoding="UTF-8"?>
<svg id="Layer_2" data-name="Layer 2" xmlns="http://www.w3.org/2000/svg" viewBox="0 0 89.91 78.6">
  <defs>
    <style>
      .cls-1 {
        fill: #230d1e;
        stroke-width: 0px;
      }
    </style>
  </defs>
  <g id="Layer_1-2" data-name="Layer 1">
    <path class="cls-1" d="M33.6,75.2l-.4-15.7-7.2-10-5.6,14.8c-.2.5-.4,1-.8,1.4l-10.5,11.5c-1.2,1.3-3.3,1.4-4.7.2h0c-1.2-1.1-1.4-3.1-.3-4.3l9.6-11.3,4.6-19.2,3.5-20.3-10.7,3.1-5.9,7.7c-1,1.3-2.8,1.5-4.1.6h0c-1.2-.9-1.5-2.6-.5-3.8l7.2-9.3c.4-.5.9-.9,1.5-1l12.5-3.7c.4-.1.9-.2,1.3-.1l14.4,1.3,11.4-1.7,8.8-6.9c1.1-.9,2.8-.9,3.9.1h0c1.3,1.1,1.3,3.2-.1,4.2l-10.2,7.8c-.5.4-1,.6-1.6.7l-12.9,2.5-4.9,18.8,8,12.4c.6.8.8,1.8.8,2.8l-.4,17.2c-.1,2-1.3,3.6-3.3,3.6h0c-1.8,0-3.4-1.5-3.4-3.4ZM32.1,0c-3.6,0-6.6,2.9-6.6,6.6s2.9,6.6,6.6,6.6,6.6-2.9,6.6-6.6-3-6.6-6.6-6.6ZM62.9,6.5c.3,2,6.6,2.6,14.1,1.4s13.2-3.7,12.9-5.7c-.3-2-6.6-2.6-14.1-1.4-7.4,1.2-13.2,3.8-12.9,5.7Z"/>
  </g>
</svg>